<?xml version="1.0" encoding="UTF-8"?>
<svg id="Calque_1" xmlns="http://www.w3.org/2000/svg" xmlns:xlink="http://www.w3.org/1999/xlink" version="1.1" viewBox="0 0 35.6 49.1">
  <!-- Generator: Adobe Illustrator 29.0.1, SVG Export Plug-In . SVG Version: 2.1.0 Build 192)  -->
  <defs>
    <style>
      .st0 {
        fill: url(#Dégradé_sans_nom_4);
      }

      .st1 {
        fill: url(#Dégradé_sans_nom_3);
      }

      .st2 {
        fill: url(#Dégradé_sans_nom);
      }

      .st2, .st3, .st4, .st5 {
        fill-rule: evenodd;
      }

      .st3 {
        fill: url(#Dégradé_sans_nom_5);
      }

      .st4 {
        fill: url(#Dégradé_sans_nom_2);
      }

      .st6 {
        fill: #fffe5f;
        opacity: .4;
      }

      .st6, .st5, .st7 {
        isolation: isolate;
      }

      .st5 {
        fill: #2a5000;
        opacity: .7;
      }

      .st7 {
        fill: #fff;
        opacity: .8;
      }
    </style>
    <linearGradient id="Dégradé_sans_nom" data-name="Dégradé sans nom" x1="17.9" y1="55.1" x2="17.9" y2="6.9" gradientTransform="translate(0 56) scale(1 -1)" gradientUnits="userSpaceOnUse">
      <stop offset="0" stop-color="#dbff72"/>
      <stop offset=".6" stop-color="#badd22"/>
      <stop offset=".8" stop-color="#f2f014"/>
    </linearGradient>
    <linearGradient id="Dégradé_sans_nom_2" data-name="Dégradé sans nom 2" x1="17.9" y1="52.1" x2="17.9" y2="9.9" gradientTransform="translate(0 56) scale(1 -1)" gradientUnits="userSpaceOnUse">
      <stop offset=".4" stop-color="#88c800" stop-opacity="0"/>
      <stop offset="1" stop-color="#88c800"/>
    </linearGradient>
    <linearGradient id="Dégradé_sans_nom_3" data-name="Dégradé sans nom 3" x1="17.9" y1="45.8" x2="16.5" y2="25.3" gradientTransform="translate(0 56) scale(1 -1)" gradientUnits="userSpaceOnUse">
      <stop offset="0" stop-color="#ccd110"/>
      <stop offset=".4" stop-color="#adb90d"/>
      <stop offset="1" stop-color="#557304"/>
    </linearGradient>
    <linearGradient id="Dégradé_sans_nom_4" data-name="Dégradé sans nom 4" x1="25.5" y1="49.7" x2="25.5" y2="33.9" gradientTransform="translate(0 56) scale(1 -1)" gradientUnits="userSpaceOnUse">
      <stop offset="0" stop-color="#dbdd11"/>
      <stop offset="1" stop-color="#99a90b"/>
    </linearGradient>
    <linearGradient id="Dégradé_sans_nom_5" data-name="Dégradé sans nom 5" x1="17.9" y1="55.1" x2="17.9" y2="6.9" gradientTransform="translate(0 56) scale(1 -1)" gradientUnits="userSpaceOnUse">
      <stop offset="0" stop-color="#f2f014"/>
      <stop offset="1" stop-color="#274e00"/>
    </linearGradient>
  </defs>
  <path class="st2" d="M17.9.9C8.1.9.2,18.1.2,31s7.9,18.1,17.7,18.1,17.7-8.1,17.7-18.1S27.7.9,17.9.9Z"/>
  <path class="st4" d="M17.9,11c-8.1,0-14.6,8-14.6,19.2s6.5,15.9,14.6,15.9,14.6-7.1,14.6-15.9-6.5-19.2-14.6-19.2Z"/>
  <path class="st1" d="M3.5,15.1c.5,2.5,1.8,4.5,4,6,.6.5,1.3.9,2.2,1.3,1.8.7,4.4,1.3,7.8,1.9.3,0,1.9.4,2.2.6,1.2.5,2.2,1.2,3,2.2,1.2,1.4,1.9,3.2,1.9,5.2,0,4.3-3.2,7.8-7.4,8,1.1-.3,2.4-.9,3-1.9.2-.4.3-.8.4-1.3v-7.2c0-.2,0-.4,0-.5,0-1.1,0-1.4.6-1.7h0s0,0,0,0c0,0-.7-1-2.5-1-1.9,0-3.1,1-3.6,2,0,0,.1,0,.2,0,2.2.4,3.7,2.3,3.7,4.6s-.8,3.1-2.1,3.9c-.6.4-1.3.6-2,.7-.2.5-.7,1-1.3,1.2-.3,0-.5.1-.8.1-.5,0-1-.2-1.5-.5-1.5-1.1-3-3.4-2.9-5.4,0-.9.8-1.5,1.5-1.5,1.1,0,1.5.7,1.5,1.4,0,1.1.6,2.1,1.5,2.6.4.2.9.4,1.4.4s1.1-.2,1.6-.5c.9-.6,1.4-1.5,1.4-2.5s-1-2.7-2.4-3c-1.2-.2-2.5-.6-3.7-1-2-.6-4.1-1.3-5.1-3.3-.3.7-1,2.4-1,4.9s0,1.4.2,2.1c.4,2.7,1.6,5,3.5,7,2.5,2.5,5.4,3.8,9,3.8s6.4-1.3,8.9-3.8c2.4-2.5,3.6-5.4,3.7-8.9,0-.3,0-.5,0-.8,0-.9-.2-1.9-.4-2.7,0,0,0-.2,0-.3h0s0,0,0,0c-.2-.9-.4-1.7-.8-2.5l-.2-.4c-2-3.7-4.6-6-8.5-7.8-2.7-1.2-5.7-2.4-7.2-3-.5-.2-.8-.3-.9-.4-2.8-1.3-4.8-2.6-6-3.8-1.1,1.7-2,3.7-2.9,5.7Z"/>
  <path class="st5" d="M28.2,38.2c-2.7,2-6.4,3.3-10.3,3.3s-7.7-1.3-10.4-3.3c.4.6.9,1.2,1.5,1.8,2.5,2.5,5.4,3.8,9,3.8s6.4-1.3,8.9-3.8c.5-.5,1-1.1,1.4-1.7Z"/>
  <path class="st0" d="M33.9,19.7c-2.3-2.6-5.5-5.1-9.5-6.8-.2-.1-.3-.4-.2-.6,1.1-1.8.7-4.6-.9-6-1.4,1.1-1.8,2.7-1.7,3.9-1.7-1.3-3.8-1.6-6.1-1.3.4,4.5,4.1,5.3,6.5,5.3.9,0,1.9,0,2.7.5,5.4,2.8,9.9,7.7,10.8,13.9h0c-.2-2.9-.8-5.9-1.6-8.9Z"/>
  <ellipse class="st6" cx="13.3" cy="11.2" rx="10.8" ry="5.5" transform="translate(-3.8 14.6) rotate(-51.3)"/>
  <ellipse class="st7" cx="12.6" cy="8.7" rx="4.9" ry="2.5" transform="translate(-2 13.1) rotate(-51.3)"/>
  <ellipse class="st7" cx="8.1" cy="14.9" rx="1.5" ry=".8" transform="translate(-8.6 11.9) rotate(-51.3)"/>
  <path class="st3" d="M23.8,4.9c-1.9-1.7-4-2.6-6-2.6s-4,.9-6,2.6c-1.9,1.7-3.8,4.1-5.3,6.9C3.5,17.5,1.6,24.8,1.6,31c0,9.2,7.3,16.7,16.3,16.7s16.3-7.4,16.3-16.7-1.9-13.4-5-19.2c-1.5-2.9-3.4-5.3-5.3-6.9ZM35.6,31C35.6,18.1,27.7.9,17.9.9S.2,18.2.2,31s7.9,18.1,17.7,18.1,17.7-8.1,17.7-18.1Z"/>
</svg>